<svg id="Calque_1" data-name="Calque 1" xmlns="http://www.w3.org/2000/svg" viewBox="0 0 2000 2000"><defs><style>.cls-1{fill:#2dcc70;}</style></defs><rect class="cls-1" x="-12.71" y="-22.71" width="2032.14" height="2035.71"/><path d="M1085.15,893.14,968.32,470a65.44,65.44,0,0,0-37.89-38.9q-216.93,2.44-433.86,4.79a48.73,48.73,0,0,0-42.95,50.52c.84,149.89,1.69,257.67,2.53,407.55l-65.68,44.63A57,57,0,0,0,387.94,979l33.05-.95H421a381.21,381.21,0,0,1,243.3-87.26c211.46,0,382.92,171.46,382.92,382.92,0,2.79,0,5.63-.11,8.42h35.47V1238l22.74,0,95.41.31,270.88.9c5.94-6,12.31-12.79,19-20.21,1.58-1.79,3.21-3.58,4.84-5.47,44-50.32,97.88-129.36,118.88-235.77a472.58,472.58,0,0,0,8.84-82.1ZM562.24,784.52l-2.52-240,303.13,2.52,90.94,232.4Z"/><path d="M1563.43,1365.31c0,112.42-91.15,203.57-203.56,203.57s-203.57-91.15-203.57-203.57a203.86,203.86,0,0,1,10.74-65.46h95.83a117,117,0,1,0,194,0h95.83A203.86,203.86,0,0,1,1563.43,1365.31Z"/><path d="M1426.18,562.85V650h-39.79a23.9,23.9,0,0,0-15.79,7,24.17,24.17,0,0,0-6.94,15.79l-1.9,151.56H1232.93L1231,676.53c.69-10.27,4-41.58,28.42-70.1a120.93,120.93,0,0,1,60.63-37.9Z"/><path d="M664.34,986.19c-158.83,0-287.55,128.72-287.55,287.55S505.51,1561.3,664.34,1561.3,951.9,1432.57,951.9,1273.74,823.17,986.19,664.34,986.19Zm0,404.6a117,117,0,1,1,117-117A117.07,117.07,0,0,1,664.34,1390.79Z"/></svg>