<svg id="Calque_1" data-name="Calque 1" xmlns="http://www.w3.org/2000/svg" viewBox="0 0 2000 2000"><path d="M1908.71,1065.54c-4.61,31.35-8.31,62.86-14,94-34.67,190.21-124.25,350.55-264.85,482.59-9.63,9-11.73,16.09-7.93,28.53,13.41,43.92-3.67,90.25-41.6,116.77-38.75,27.09-88.58,27.09-125.17-1.78-10.69-8.43-18.08-8-29.56-2.31-140.49,69.46-289,98-445.41,87-114.89-8.11-223.81-37.23-326.46-89.4-8.64-4.39-14.19-3.47-22,2-38.78,26.82-84.31,26.55-122.44.33-37.86-26-53.58-68.5-44-114.85,1.32-6.39-1.63-16.5-6.34-20.89C320.15,1518,230.36,1360.58,193,1174.65c-10.72-53.44-12.75-108.67-17.7-163.18-1-10.64-3.06-16.32-13.73-20.69-47.42-19.42-71.51-61.34-66.47-113.06,4.59-47.17,39-84,88.51-92.38,14.87-2.51,21.09-8.73,25-23.23,20.61-76.68,52.72-148.55,94.31-216.18,11.37-18.49,24.25-22.69,39.31-13.24,14.53,9.11,17.35,23.8,6.7,41.3-41,67.35-72.23,138.79-92,215.18-.57,2.21-1.07,4.43-1,4.13,13.22,14.38,24.66,27.71,37.21,39.9,3.28,3.18,10.37,4.77,15.06,3.82,102-20.57,205-31.25,309-33.72,6.07-.14,14.07-4.94,17.66-10,27.24-38.74,63.22-56.54,110.92-50.77,6.5.79,16.49-3,20.33-8.07A1301.89,1301.89,0,0,1,936.35,549.83c3.9-3.49,6-11.49,5.43-17-2.29-22.41-5.95-44.68-9.88-72.49-78.69-47.37-168.67-85.76-265.06-114-15.68,28.07-39.21,47.56-71,55.6-31.39,7.95-60.77,1.92-90.16-17.14-24.53,25.38-49,50.91-73.7,76.17-14.54,14.85-34.73,12.72-44.57-4.45-6.88-12-3.92-22.81,5.2-32.17,22.65-23.24,45.16-46.64,68.48-69.2,7.57-7.32,10.64-12.67,7-24-15.52-47.91,1.4-95.36,42-122.7,41.32-27.8,90.22-25.55,129.18,7.08,8.19,6.86,14.05,7.4,23.3,2.81,130.5-64.68,269.08-92.57,414.13-87.08,117.25,4.44,229.55,31.14,335.55,82.34,8.18,3.95,14.21,6.61,23.52-.71,37.77-29.7,84.07-31.11,123.47-5.65,39.59,25.59,58.08,69.91,46.88,116.51-2.5,10.42-1.14,16.7,6.93,22.66,4.26,3.14,8.65,6.44,11.93,10.51,19.76,24.53,41,32.65,75,25,40.5-9.16,74.5,13.36,97,48.06,23.84,36.72,25.6,75.7,2.07,113.25-7.85,12.54-7.25,20.75-.32,33C1860,684.39,1895,800.8,1905.35,924.66c.38,4.51,2.21,8.9,3.36,13.34ZM693.4,953.68c-17.46,43.39-36.37,85.85-51.8,129.55-56,158.44-75.06,321.75-60.88,489,.46,5.43,4.39,14.31,8.12,15.14,30.87,6.78,54.48,23.94,72.79,49q425.19-157.17,707.25-508.21c2.86-3.56,3-12.21.71-16.52-10.82-20.42-16.84-41.86-13.41-64.64,2.19-14.59-3.77-20.49-15.91-26.41a1616.83,1616.83,0,0,0-426.5-138.94c-26.45-4.72-53.17-8-79.27-11.81C811.13,937.76,768.58,963.33,693.4,953.68Zm828.11,193.82c9.08,47.16,17.91,93.29,26.85,139.4,2.55,13.16-1.46,23.33-13.42,29.68-18.66,9.92-36.15-1-40.47-24.12-7.94-42.57-16.44-85-24.22-125.1-16.67-3.37-29.63-4.87-41.78-8.83-8.81-2.87-13.51-1.32-19.22,5.75-17.79,22-36,43.75-54.82,64.89-176.12,197.65-387.15,345.56-633.86,441.63-27.85,10.84-49.39,21.46-47.56,55.21.06,1.14.29,2.27.59,4.48,7.28,3.67,15,7.82,22.93,11.49,95.6,44.34,195.77,69.9,301.21,75.69,140.14,7.7,272.79-20.13,399.39-79.83,13.52-6.37,16.85-13.84,15.28-28.23-4.21-38.66,10-71.1,40.48-94.69,14-10.82,31.37-17.26,50.45-27.41,1.61-42.2,3.52-87.54,5-132.88.68-21.23,9.18-31.47,27.2-31.22,17.2.24,26.3,10.26,25.88,30.53-.8,38.33,0,76.91-4.42,114.86-2.66,23.07,4.47,34.85,24.52,41.88a5,5,0,0,0,1.76,0c66.52-51.81,164.65-183.15,194.67-261.93,1.74-4.58-1.13-13.66-5-17.23-43.37-40-86.45-80.35-131.49-118.4-33.14-28-69.07-52.69-103.4-78.59ZM612.37,855,310,889.9c-2.62,57.15-31.51,89.9-82.87,107C241,1236.73,327,1443,497.52,1610.65c24.74-7.53,31.79-20.75,29.58-44.18-10.35-109.25-4.15-217.9,16.35-325.77a1232.32,1232.32,0,0,1,100.3-304.29c2.26-4.72,4-11.87,2-16.07C636.5,900.34,625.84,881,612.37,855ZM1492,951.87C1560.4,838,1613.54,718.42,1651.49,592.2c1.3-4.34-3.21-12.63-7.46-16.08-28.81-23.46-45.79-53-43-90.36,1.52-20.49,8.76-40.55,14.17-64L1571.3,380.9c-28.26,20.7-57.1,29.08-90,22.35-33.13-6.78-57.25-25.7-74.56-53.78C1318.18,376,1235.17,411.73,1156.83,458c-4.67,2.76-7.22,11.49-8.13,17.82-2.45,17.26-1.39,35.27-5.81,51.9-3.16,11.86-.88,17.76,7.59,25.27A1204.15,1204.15,0,0,1,1431.63,919.9c9.68,19.41,18.44,34.21,43.22,29.31C1479.68,948.25,1485.18,950.71,1492,951.87Zm254.2-361.7c-8.92,1.92-14.08,4-19.23,4-15.36-.13-22.37,7.19-26.39,22-6.78,24.94-15.57,49.37-24.33,73.73-34.58,96.12-78.14,188-129.48,276.35-3.12,5.36-5.14,15.83-2.17,19.55,24.71,31.11,29.72,65.79,22.53,98.65L1807.3,1282Q1928.05,925.08,1746.21,590.17ZM805.7,772.56c6.77,10.53,14.27,18.77,17.73,28.45,4.38,12.29,12.8,14.5,23.78,16.67,79.53,15.72,159.66,29.21,238.23,48.84C1185,891.39,1279.68,930.58,1371.73,976c5,2.48,14.47,2.72,18-.39,3.13-2.78,3.08-12.69.68-17.63Q1288.27,747.81,1113.79,592.2c-6.14-5.48-10.92-10.58-21.15-5-33.38,18.32-67.42,17.31-101.61.7-4.42-2.15-13.08-1.83-16.49,1.13A1123.55,1123.55,0,0,0,805.7,772.56ZM1120.62,416c77.05-45.44,158.11-83,243.93-109.47,19.62-6.05,34.55-12.31,33.17-35.85-.07-1.14-.4-2.26-.81-4.53-5.69-2.75-11.94-5.91-18.3-8.82-96.56-44.17-197.9-67.69-304-71.73-135.08-5.15-263.65,20.58-385.29,79.69-5.58,2.71-11.46,9.67-12.62,15.55-2.14,10.81,6.94,13.38,15.91,16.88,67.9,26.51,135.79,53.11,203,81.29,24.14,10.12,46.43,24.66,69.2,37C1004.21,380.48,1063.48,368.91,1120.62,416Zm587.91,125.8c29.69-.3,52.36-24.33,51.9-55-.45-29.37-23.66-52.29-52.91-52.25-31.35,0-54.71,23.88-53.91,55C1654.39,520.09,1677.59,542.15,1708.53,541.83Zm-192.81,515c.12-30.45-22.57-54-52.82-54.8-28.3-.74-53.73,24.78-53.88,54.09s24.67,55,53.2,54.76C1492.33,1110.65,1515.6,1087.14,1515.72,1056.8Zm39.46-760a53.08,53.08,0,0,0-53.91-53.27c-28.38.35-52.74,24.61-53.13,52.93-.44,31.21,23,54.61,54.54,54.34C1533.63,350.5,1555.27,328.24,1555.18,296.75Zm-35.89,1456.33a53.63,53.63,0,0,0,53-54.36c-.43-30.8-23.1-52.92-54-52.75s-52.83,22.59-52.79,53.78A53,53,0,0,0,1519.29,1753.08ZM1095,492.69c.12-30.94-22.13-53.95-52.57-54.35C1013.6,438,988.3,462.87,988,491.93c-.33,29.32,24.31,54.13,53.65,54C1072.88,545.85,1094.83,523.92,1095,492.69ZM254.67,890.4c-.21-30.78-22.92-53.24-53.72-53.12-29.35.11-53.44,24.85-53,54.48.39,29.19,25.71,54,54.44,53.41C232.86,944.51,254.88,921.47,254.67,890.4Zm368.6,805.3c.29-29.42-23.71-54.84-52.44-55.54-28.49-.69-54.11,24.47-54.51,53.55s23.78,54.58,52.69,55.4S623,1725.28,623.27,1695.7Zm0-1397c.25-31.16-21.68-54.42-52-55.14-30.47-.73-54.95,23.47-55,54.36,0,28.8,23.43,52.62,52.41,53.25C598.88,351.84,623,328.6,623.27,298.72Zm104,604.07c30.06.11,53.5-22.86,54.32-53.24.78-28.93-24-53.81-53.65-53.92-30-.12-54,23.66-53.84,53.26C674.35,879.76,697,902.68,727.31,902.79Z"/></svg>