<svg id="Calque_1" data-name="Calque 1" xmlns="http://www.w3.org/2000/svg" viewBox="0 0 2000 2000"><path d="M108.71,279c13.93-36.56,41.36-49,79.18-48.31,68.89,1.33,137.81.31,206.72.4,82.05.1,139.84,45.83,158.71,125.14,7.88,33.12,16.54,66.06,24,99.26,2.08,9.18,6,13,15.19,12.17,4.59-.43,9.26-.06,13.89-.06q602,0,1203.9.17c12,0,24.6.71,35.92,4.27,32,10.06,47.92,41.76,39,78.56-27,111-54.76,221.88-82.39,332.75q-35.38,141.95-71.21,283.77c-9.3,36.76-30.92,53.35-68.37,53.36q-437.77.07-875.56.08h-23c7.66,32.14,14.89,62.72,22.27,93.26,2.85,11.78,6.53,23.38,9,35.23,3.35,16.29,13.74,23.25,29.41,24,5.2.25,10.42.07,15.63.07q346.59,0,693.16-.15c86.62-.16,151.64,36.23,187.94,114.78,35.06,75.89,23.47,149.22-32.08,211.42-54,60.45-123.54,80.54-201.64,56.87-79.37-24.07-126.24-80.18-137.6-161.88-4.25-30.58,2.65-62.71,4.5-94.87H967.55c2.28,28.45,7.92,57,6.21,85.19-6,98.73-85.06,175.76-186.6,180.35-98.37,4.46-179.12-63.67-198.92-152.8-17.5-78.75,12.78-157.19,79.39-204,8.52-6,12.28-10.64,9.43-22.23Q553.9,885.79,431.64,385.57c-5.65-23.05-12.29-28.37-36.33-28.41-68.91-.12-137.85-1.18-206.72.39-37.82.87-65.07-11.54-79.88-47.3ZM1745.32,595.09H612.59c.6,4.1.78,6.95,1.45,9.69,38.5,157.44,77.31,314.8,115.11,472.41,3.59,15,9.13,18.77,23.84,18.74q424.56-.66,849.12-.32h18.42C1662.14,928.71,1703.56,762.6,1745.32,595.09Zm-895.85,974c.1-39.75-30.35-70.59-69.82-70.69s-70.35,30.44-70.46,70,30.34,70.65,69.8,70.85S849.37,1608.66,849.47,1569.11Zm765.25-.69c-.24-39.46-31.25-70.13-70.76-70-39.32.13-70,31.24-69.92,70.82a69.86,69.86,0,0,0,70.76,70.07C1584.25,1639.05,1615,1607.92,1614.72,1568.42Z"/></svg>