<?xml version="1.0" standalone="no"?>
<!DOCTYPE svg PUBLIC "-//W3C//DTD SVG 20010904//EN"
 "http://www.w3.org/TR/2001/REC-SVG-20010904/DTD/svg10.dtd">
<svg version="1.0" xmlns="http://www.w3.org/2000/svg"
 width="512.000000pt" height="512.000000pt" viewBox="0 0 512.000000 512.000000"
 preserveAspectRatio="xMidYMid meet">
<metadata>
Created by potrace 1.16, written by Peter Selinger 2001-2019
</metadata>
<g transform="translate(0.000000,512.000000) scale(0.100000,-0.100000)"
fill="#000000" stroke="none">
<path d="M303 4790 c-134 -48 -237 -152 -284 -288 -18 -53 -19 -96 -19 -1042
0 -965 0 -987 20 -1046 29 -82 86 -161 157 -215 84 -64 161 -88 306 -96 l117
-6 0 -245 c0 -226 1 -247 20 -277 30 -49 76 -69 144 -63 56 5 68 12 488 294
l431 289 786 5 786 6 64 23 c128 47 237 159 281 285 20 59 20 81 20 1046 0
946 -1 989 -19 1042 -47 138 -151 242 -288 289 -55 18 -95 19 -1507 18 -1388
0 -1453 -1 -1503 -19z m2638 -905 c93 -49 91 -200 -3 -252 -31 -17 -93 -18
-1128 -18 -1035 0 -1097 1 -1128 18 -92 50 -97 194 -9 247 31 19 59 20 1135
20 976 0 1106 -2 1133 -15z m-894 -605 c88 -53 83 -197 -9 -247 -31 -17 -76
-18 -678 -18 -602 0 -647 1 -678 18 -92 50 -97 194 -9 247 31 19 55 20 687 20
632 0 656 -1 687 -20z"/>
<path d="M3917 3038 c-4 -640 -5 -641 -75 -790 -73 -156 -203 -287 -358 -359
-158 -75 -123 -72 -959 -76 l-750 -4 -137 -91 -138 -91 0 -176 c0 -152 3 -186
20 -237 44 -126 153 -238 281 -285 l64 -23 785 -6 786 -5 431 -289 c420 -282
433 -289 489 -294 68 -6 114 14 144 63 19 30 20 51 20 277 l0 245 118 6 c144
8 221 32 305 96 71 54 128 133 157 215 20 59 20 81 20 1046 0 946 -1 989 -19
1042 -47 138 -151 242 -288 289 -52 18 -86 19 -474 19 l-417 0 -5 -572z"/>
</g>
</svg>
