<svg id="Calque_1" data-name="Calque 1" xmlns="http://www.w3.org/2000/svg" viewBox="0 0 2000 2000"><path d="M1859.14,656.68c-12.32,42.56-44,70.77-73.84,100.59Q1440,1102.21,1095,1447.55c-37.41,37.45-80.69,54.39-132,35.68-18.68-6.82-37-19-51.2-33.1q-364.29-362.7-727.29-726.7c-64.16-64.28-50.42-160.2,28.36-198.64C255.72,503.9,297.42,509.4,336,536.84c9,6.41,16.93,14.53,24.81,22.4q312.66,312.53,625.12,625.23c4.71,4.72,8.62,10.25,14,16.69,6.58-6.28,11.36-10.67,16-15.26q315-314.93,629.85-630c37.43-37.49,80.36-53.56,132.12-36.27,36.55,12.2,61.17,37.49,74.56,73.67,2.06,5.56,4.49,11,6.75,16.45Z"/></svg>