<svg id="Calque_1" data-name="Calque 1" xmlns="http://www.w3.org/2000/svg" viewBox="0 0 2000 2000"><path d="M1317.16,1113.79c41.13,0,80.8-.06,120.47,0,22.45,0,35.26,11,34.85,29.55-.4,17.7-13,28.12-34.48,28.14q-150.8.09-301.57,0c-21.82,0-33.78-10.2-34-28.38-.26-19,11.85-29.25,34.89-29.3,39.61-.09,79.22,0,119.89,0v-758c-38-5.55-71.58,4.09-101.46,26.9-59.5,45.42-63.41,47.12-137.07,52.76,1.91,6.38,3.37,12.56,5.58,18.46,27.19,72.47,54.77,144.8,81.49,217.44,4.28,11.62,8.82,17.32,22.48,16.74,21.19-.9,32.35,12.39,31.9,34.33-2,99.28-89.43,182.49-188.7,179.64-100.08-2.88-181.64-82.31-182.61-177.86-.27-26.47,8.45-35,34.92-37,5.57-.41,13.84-5,15.64-9.66C868.7,601.4,897.21,525,925.88,448.57c1.46-3.89,2.67-7.88,5.28-15.67-16.22,0-30.78,0-45.35,0-9.63,0-19.31.41-28.87-.44-17.9-1.6-28.39-12.56-28.5-28.71C828.32,387,839.73,374.7,858,374c21-.81,42.13-.23,63.2-.24,41.53,0,83.19,1.89,124.54-.92,18-1.22,39.43-7.65,52.26-19.41,43.25-39.59,92.36-59.54,150.67-57.78,2.33.07,4.69-.52,9.61-1.11,0-14.84-.18-29.6,0-44.35.3-19.62,11.64-32,28.89-31.95s28.46,12.42,28.76,32.1c.22,14.32,0,28.65,0,42.52,20.74,2.12,40,2.65,58.62,6.3,36.17,7.08,67.9,23.9,94.6,49.41,18.4,17.58,39.67,25.64,65.21,25.37,59-.61,118-.15,177-.2,16.78,0,29.77,6,33.92,23.38,4.56,19-8.56,34.58-30.37,35.43-22.78.88-45.62.2-71.44.2,2.29,7.38,3.68,12.84,5.64,18.08,27.53,73.63,55.42,147.12,82.46,220.93,4.42,12.07,10.08,16.66,23.2,16.23,20.29-.65,30.53,11,30.68,31.41.72,93.46-74,174.37-167.06,181-103,7.29-187.53-57.29-201-153.59-1.08-7.75-2.3-15.49-3-23.28-1.87-22.34,9.79-35.53,32.28-35.71,9.58-.07,16.28-.61,20.42-11.93,28.25-77.18,57.41-154,86.2-231,1-2.73,1.25-5.76,2.07-9.74-12.51-.7-24.38-.74-36.08-2.15-35.09-4.25-65.18-19.19-91.58-42.67-31.18-27.73-67.54-40.25-110.64-34.8ZM1095.7,746.12H851.85c11.28,58.08,64.75,98.34,128,97C1034.75,842,1088,798.09,1095.7,746.12Zm626.51-.77q-115.5,0-230.69,0c-4.13,0-8.26.48-12.4.74,3,46.62,57.62,94.29,110.41,96.91C1655.18,846.3,1712.71,804.33,1722.21,745.35Zm-673-58.19-75-200.07c-25.67,68.57-50,133.59-74.89,200.07Zm626,0-75.05-200.06-74.92,200.06Z"/><path d="M1352.79,1349.51c91.38-26.57,181-53,270.92-78.59,29.73-8.48,58.75-21,91.41-13.55,48.44,11.06,84.42,47.43,91.51,95.09a113,113,0,0,1-61.91,118.19c-56.48,28-113.79,54.25-170.75,81.25-128.53,60.92-256.9,122.21-385.65,182.67q-206.7,97.07-405.22-16.82c-69.25-39.86-138.72-79.41-206.91-121-29.45-18-60.29-12.41-91.08-13-3.06-.06-7.1,5.37-9.23,9.09-17,29.73-42.17,45-76.68,44.91-49.95-.16-99.9.16-149.85-.1-37.11-.19-60.12-23.8-60.14-61.37q-.09-213.95,0-427.89c0-36.24,23-60.13,59.29-60.52,49.95-.53,99.9,0,149.85-.16,35.14-.08,60.57,15.49,78.37,45.69,2.93,5,12,8.88,18.27,8.93,75.22.61,150.46,1,225.68.2,55.85-.6,106.61,14.6,153.43,44.36,29.42,18.69,59.29,36.72,88.14,56.24,22.36,15.13,46.41,21.43,73,21.26,57.78-.37,115.61,1.48,173.31-.53C1275,1261.5,1324.32,1285.44,1352.79,1349.51ZM485.3,1524.38c8.49,0,15,.24,21.42,0,39.35-1.66,75.25,6.45,109.68,27.82,64.81,40.23,131.37,77.66,197.51,115.71,109.6,63.05,223.47,71.58,338.37,18.37,187.42-86.79,373.55-176.36,560.1-265,30.41-14.45,42.72-42.86,32.28-71.23-10.53-28.59-39.43-41.48-73-31.8-99.11,28.62-198.07,57.73-297.29,86-11.5,3.28-16.36,8.56-19,20-13.08,56.23-61.78,97.07-119,97.67-100.51,1-201,.44-301.55.52a54.13,54.13,0,0,1-5.41-.25c-16.28-1.63-24.83-11.3-26.36-26.92-1.47-15,9.56-28.29,24.72-30.54,5.31-.79,10.81-.38,16.22-.39q140.85,0,281.71,0c43.14-.06,75.4-30.62,75.34-70.84-.07-40.38-32-70.27-75.47-70.34-65-.09-130-.29-195,.08-34.71.2-66.28-8.72-95.34-27.84s-59.13-37-88.18-56.25c-40.93-27.18-85.79-39-134.66-38.69-83.66.49-167.33.19-251,.09-21.74,0-30-7.25-33.95-28.7-3.37-18.37-11.64-25.47-30.93-25.54q-68.62-.24-137.24,0c-3.94,0-7.87,1.06-11.4,1.57v432c47.73,0,94.53,0,141.32,0,30.37,0,38.33-7.94,38.35-38.39q0-110.16.05-220.31c0-21.19,11-33.78,28.88-33.73s28.74,12.6,28.78,33.85q.17,91.2,0,182.39Z"/><path d="M366,1238.42c0,15.37-13.21,29.09-28.29,29.39-15.63.31-29.64-14.24-29.16-30.29.45-15.35,14.18-28.75,29.15-28.47S366,1223.08,366,1238.42Z"/></svg>