<svg id="Calque_1" data-name="Calque 1" xmlns="http://www.w3.org/2000/svg" viewBox="0 0 2000 2000"><path d="M1004.47,395c55.83-49.13,117.6-90,187.64-117.38,243.56-95.23,507.25,15.55,620.42,260.38,50.11,108.42,60.14,222,43.4,338.84-24.64,172.07-109.85,312.58-228,435.8-84.28,87.93-180,162.57-276.13,236.67-51,39.31-102,78.63-153.78,116.91-19.52,14.42-40.77,26.68-62,38.62-90.45,51-182.38,51.9-270.4-2.24-62.08-38.18-120.43-82.76-178.56-127-104-79.11-208.13-158.31-300.06-252-91.71-93.42-167.85-197.29-208.79-322.93C122.86,830.69,121.14,662.3,210.64,502,287.7,364.06,404,276,561.5,249.2c120.35-20.44,232.21,8.29,335.5,70.74C933.7,342.13,967.55,369,1004.47,395ZM1742.3,777.32c.36-93.22-24.82-178.46-78.54-255.13-87.67-125.12-233-182.39-379.12-147.08-92.12,22.26-166.47,75.1-232.22,141.42-33.91,34.2-65.44,32.81-101.11.19-32.64-29.86-66-59.8-102.68-84.24-81.08-54-170.81-80.58-268.63-63.54C454.66,390.78,365.91,464,308.6,575.37c-58.88,114.38-58,234.53-25.34,355.7,33,122.35,104.92,221.2,192.45,310.13,85.43,86.79,182.38,159.85,278.72,233.52,55,42.08,111,83.17,168.52,121.74,50.82,34.06,104.59,32.63,157.31,1.4,9.13-5.42,18.77-10.17,27.22-16.5,64.52-48.34,129.11-96.6,193.09-145.66,101.34-77.71,200.94-157.45,283.88-255.6C1682.75,1063.77,1741.72,932,1742.3,777.32Z"/></svg>