<svg id="Calque_1" data-name="Calque 1" xmlns="http://www.w3.org/2000/svg" viewBox="0 0 2000 2000"><path d="M991.73,582.87c156.84-130.35,367-95.21,480.67,25,115.57,122.26,133.17,321.26,13.08,467.69,35.26,33.71,51.92,74.12,32.83,122.15-18.7,47-56,67.67-107.09,66.59-.34,32.76-8.28,62.16-32,85.59-23.31,23-52.08,31-83.72,30.71-1,76-48.37,114.16-113.71,116.9-.43,46.89-18.58,83.66-64,101.62-46.71,18.44-85,1.87-118.68-34.11-34.11,37.77-73.78,60.67-125.65,42-50.32-18.1-70.56-57.44-71.27-108.42C722,1489.18,690.93,1458,687.53,1382.36c-31.82.55-61.25-7.33-84.75-30.71-23.13-23-31.46-51.77-31.49-84.41-50.36-.9-89.29-20.06-107.8-68.44-20.3-53.08,2-94.11,42.15-129.49-61.92-78.94-87.46-167.74-74.48-266.13,10.27-77.93,45.09-144.24,100.82-200.1C634.68,500.18,834.17,458.41,991.73,582.87ZM958,617.22c-108-91.55-296-92.17-408.46,33.1-110.41,123-87.49,302.2-7.22,387,19.81-21.15,38-44,59.66-62.86,32.54-28.33,71.06-32.82,110.14-15.07,38.52,17.49,58.29,49.27,60.8,91.57.24,4.13,0,8.29,0,13.41,33.25.16,62,8.25,85.11,31.31,23.57,23.49,31.63,52.7,30.28,85.42,34.38-1.31,62.76,7.65,85.9,30.8s30.66,52.07,31,84.35c4.58.26,8.17.56,11.75.65,51.23,1.38,93.87,34.33,100.37,85.16,3.78,29.56,22.2,44,41.79,58.22,9.83,7.14,25.37,9.62,38,9,24.09-1.28,40.94-15.41,48.83-38.58,8.37-24.61,1.77-45.84-16.27-63.9q-86-86.08-172-172.15c-4.32-4.33-11.1-8.69-11.74-13.68-1.13-8.74-1.46-21,3.62-26.14s17.36-4.76,26.08-3.65c5,.64,9.37,7.38,13.7,11.7q85.45,85.34,170.74,170.84c18.63,18.77,40.14,26,65.29,17.55,43-14.54,53.24-66,19.63-100.07-58.74-59.46-118.19-118.22-177.13-177.5-13.15-13.22-13.87-25.18-3.56-35.4,9.57-9.5,23.4-8.27,35.78,3.78,15,14.58,29.56,29.54,44.34,44.32q67.14,67.14,134.36,134.21c17,16.8,37,23.34,60.64,15.67,23.39-7.6,36.66-24.06,40.75-47.67,3.93-22.62-6.14-40.16-21.8-55.78q-169.7-169.29-339.08-338.88c-3.76-3.76-7.91-7.11-13.43-12-5.18,6-9.29,11.44-14.05,16.21-50.38,50.45-100,101.72-151.54,150.92-58.22,55.54-152.54,27.66-172.07-50.4-9.86-39.38,1.59-73.83,30.52-102.57Q878.53,696.85,958,617.22Zm492.71,429.58c59.81-76.34,82.8-156.85,67.69-246.32-19.64-116.26-86.13-197.1-196.41-237-111.13-40.19-215.37-20.64-303.35,58.67-66.51,60-128,125.54-190.7,189.67-9.1,9.31-15.24,24-17.29,37.14-3.94,25,10.75,47.6,33.34,58,24.26,11.19,48.22,6.83,69-13.81q85-84.39,169.46-169.3c21.87-21.85,28.83-21.78,51.19.59q151.78,151.8,303.44,303.73C1441.81,1032.93,1445.12,1039.07,1450.72,1046.8Zm-837,227c3.45,27.45,14.67,45.83,37.12,56.9,23.29,11.49,47.67,7.64,67.66-11.85q54-52.68,106.74-106.73c24.41-25.13,24.25-60.85,1.15-84.23-22.52-22.78-60-23.28-84.4.37-36.12,35-72,70.38-106.48,107C625.64,1245.65,620.81,1260.81,613.69,1273.8Zm-53.38-50.38c12.17-4.94,27.14-6.92,36-15.32,40.57-38.32,80.47-77.48,118.5-118.31,20.65-22.16,16.47-57.56-4.92-78.39-21.13-20.56-55.61-24.18-77-4-40.67,38.21-80,77.93-118.37,118.46-16.6,17.53-17.21,40.32-6.81,62C517.82,1208.85,535.33,1219.9,560.31,1223.42Zm402.15,65.23c-3.7-27.34-16.59-48.72-39-57.62-23.7-9.39-46.22-6.14-64.69,11.91q-54.65,53.38-108.06,108c-24.4,25-24.06,60.56-.45,84.09,23.46,23.37,59,23.58,84.07-.81,36-35.12,71.93-70.43,106.44-107C950.56,1316.8,955.36,1301.64,962.46,1288.65Zm-53.91,281.89c12.07-5.21,26.78-7.64,35.75-16.13,40.08-38,79.46-76.76,117.19-117,21.12-22.55,16.93-58.89-5.43-79.75-22.19-20.69-56.48-22.49-78.59-1.37q-58.54,55.93-114.58,114.49c-17.38,18.12-18.61,41.12-8.43,63.46C864.49,1556.22,882.88,1567.16,908.55,1570.54ZM1029.69,1529c19.38,25.5,39.24,36.22,65.78,30,20.4-4.78,33.74-18.22,38.43-38,6.54-27.64-5.39-48.64-24-62.13Z"/><path d="M1642.62,387.47c1.72-29.9,3.42-56.63,4.75-83.38.94-19,9.05-29.17,23.61-28.7s21.87,10.63,20.92,30.39c-2.19,45.41-4.8,90.8-7,136.21-.85,17.35-9.26,25.92-26.86,25-47.85-2.51-95.72-4.79-143.56-7.59-13.65-.8-22-9.14-21.47-22.74.53-14.55,9.61-21.57,24.44-21.46,28.82.22,57.65.07,87.11.07-3.2-3.45-7.69-8.66-12.57-13.46-124.4-122.24-272.5-198.37-443.95-230.45C717.39,90.77,272.83,364.54,172.86,823.94,139.6,976.78,149,1127.59,199.7,1275.7c1.39,4,3.15,8,4.21,12.15,3.52,13.76,2.77,26.47-13.1,31.64-15.28,5-25.11-3-29.51-17-10.28-32.7-22-65.18-29.22-98.59C73.66,935,124.45,687.8,288.23,466.78c121.83-164.4,284.2-274.71,482.94-323.71,330.49-81.5,618.63.78,863.09,237.19C1636,382,1638,383.45,1642.62,387.47Z"/><path d="M353.67,1616.47c-1.7,29.52-3.39,56.24-4.72,83-.95,19-9.07,29.26-23.53,28.87s-22-10.65-21-30.33c2.19-45.41,4.82-90.81,7-136.22.84-17.31,9.12-26,26.76-25.07,47.86,2.5,95.73,4.81,143.58,7.56,13.69.79,22,9.08,21.55,22.65-.46,14.54-9.46,21.68-24.33,21.57-28.82-.21-57.65-.06-86.53-.06a114.1,114.1,0,0,0,8,9.4c125,124.44,273.87,205.11,447.88,233.85,314.87,52,579.57-44.88,791.16-281.85,113.39-127,175.5-279.13,196.64-448.11,16.15-129.06,1.45-254.57-40.77-377.22-1.39-4-3-8.08-3.84-12.26-2.6-13.73.79-24.76,15.65-28.76,13.92-3.75,23.31,3.65,27.22,15.73,10.73,33.21,22.39,66.35,29.79,100.36,58.45,269,8.18,516.53-156.16,737.15-136.92,183.81-321.18,299-547.15,338.62-306,53.62-571.52-32-794.9-248C362.65,1624.15,359.09,1621.25,353.67,1616.47Z"/></svg>