<svg id="Calque_1" data-name="Calque 1" xmlns="http://www.w3.org/2000/svg" viewBox="0 0 2000 2000"><path d="M1000.9,149.8q353,0,706.07,0c82.56,0,143.32,36.88,176.54,111.93,33.33,75.29,18.37,145.23-36.7,205.9q-299.47,330-599.69,659.35c-10,11-14.47,21.67-14.38,36.74.64,115.23-.06,230.46.65,345.69.16,26.59-9.21,46.84-29.56,63.09q-162.67,129.85-325.22,259.89c-23.11,18.46-48.42,23.95-75.49,10-26.73-13.81-37-36.58-36.93-66.64.52-202-.08-404,.79-606,.09-20.66-7-34.71-20.17-49.21q-297.48-326.18-594.26-653C102.69,412.7,86,349.24,109.08,278.82S182.72,166.47,255.49,152.2c12.11-2.37,24.83-2.3,37.26-2.31Q646.82,149.7,1000.9,149.8ZM899.75,1642.08c5.06-3.22,7.35-4.38,9.31-5.95,60.55-48.73,121.33-97.2,181.21-146.75,6-5,9.09-16.55,9.13-25.08.6-111.77.95-223.55,0-335.31-.23-26.8,7.77-48,25.71-67.54Q1258,916.31,1389.84,770.19C1508.33,639.61,1627.08,509.27,1744.75,378c10.14-11.32,17.57-29,18.29-44.05,1.53-32.2-24.43-50.82-64.74-50.82q-698.85,0-1397.69,0c-5.55,0-11.15-.27-16.65.32-26.27,2.84-45.48,20.21-49.74,45.75-4,24.1,10.37,40.33,25.09,56.54Q567.38,724.84,875.42,1064c16.85,18.53,24.75,38.44,24.65,63.73-.64,163.15-.33,326.29-.32,489.43Z"/></svg>