<svg id="Calque_1" data-name="Calque 1" xmlns="http://www.w3.org/2000/svg" viewBox="0 0 2000 2000"><path d="M1051.8,83.71c33.15,6,66.64,10.6,99.41,18.27C1393.87,158.79,1588,366.35,1631.1,611c24.31,137.89,1.87,269.51-45.28,398.67-51.66,141.5-124.66,272.21-208.38,396.6-97.59,145-199.06,287.41-298.81,431-12.22,17.58-23.71,35.69-36.44,52.88-23,31.05-66.28,31.68-88-.25-129.63-190.74-271.52-373.11-390.64-571-75.51-125.47-142.17-255-181-397.31-49.31-180.73-36.39-355.13,60.12-517.82C547.37,227.23,702.87,122.41,906.36,90.39c12.79-2,25.51-4.44,38.27-6.68ZM996.84,1763c4.21-4.61,5.57-5.81,6.58-7.25,97.69-140.65,197.26-280,292.44-422.37,80.69-120.67,150.52-247.69,197.4-386,36.43-107.48,53.24-216.91,29.28-329.65C1466.08,352,1225.12,171.31,954,194.19,771.31,209.61,631.87,299.33,537.5,455.53,452.57,596.12,444.69,747,489.26,902.59c36.3,126.72,96.12,242.6,163.49,354.92,103.54,172.62,224.76,333.21,340,497.88A84.68,84.68,0,0,1,996.84,1763Z"/><path d="M1319.69,726.29c0,178.53-143.15,321.91-321.5,321.91s-321.5-143.42-321.45-322c0-178.11,143.63-321.07,322.4-321C1176.35,405.33,1319.65,548.84,1319.69,726.29Zm-107.16.45c0-116.46-96.83-213.74-213.38-214.35-117-.61-215.21,97.15-215.25,214.26,0,116.4,96.88,213.79,213.37,214.4C1114.28,941.66,1212.51,843.87,1212.53,726.74Z"/></svg>