<svg id="Calque_1" data-name="Calque 1" xmlns="http://www.w3.org/2000/svg" viewBox="0 0 2000 2000"><path d="M830.65,997.45c.56-91.57,77.57-167.48,169-166.61,91.61.88,167.22,78.08,166.06,169.57-1.16,90.89-77.32,166-168,165.66C906.19,1165.76,830.08,1088.94,830.65,997.45Z"/><path d="M497.92,998.3c0,92.57-75,168-167.08,167.79-91.82-.16-167.42-76.61-166.62-168.49s75.24-166.45,166.35-166.76C422.63,830.52,497.89,905.83,497.92,998.3Z"/><path d="M1832,1001.37c-2.66,93.47-78.49,166.79-170.29,164.65-95-2.21-166.44-80.68-163.18-179.3,2.82-85.52,82.72-158.32,171-155.8C1760.93,833.52,1834.62,910.83,1832,1001.37Z"/></svg>