<svg id="Calque_1" data-name="Calque 1" xmlns="http://www.w3.org/2000/svg" viewBox="0 0 2000 2000"><path d="M87,781.09c4.73-30.23,8.32-60.7,14.39-90.66C132.67,535.91,206.72,405,321.61,297.37c100.41-94,218.22-155.89,353.12-183.16,157.35-31.8,309.81-15.31,455.94,52.4,146.64,67.94,259.24,173.12,337.87,314q76.65,137.31,88.8,294.87,18.39,234.94-101.72,437c-7.32,12.36-3.86,18.24,4.66,26.74q199.07,198.48,397.74,397.37c33.91,33.84,54.67,73.16,51,122.07-4.5,59.58-34.77,103.2-89.39,126.43-52.29,22.23-103,15.25-148.59-20a299,299,0,0,1-27.69-25q-193.24-193-386-386.43c-10.44-10.51-17.17-11.55-29.46-3.23-87.06,59-183.2,96.46-286.75,112.44-146.84,22.66-288.94,5.28-424.61-57.86-147.22-68.52-260.13-174.07-339-315.41-49-87.73-78.54-182.14-87.12-282.69-.44-5.21-2.21-10.3-3.36-15.44ZM1320.56,835.8c.27-274.17-223.13-496.87-497.48-496.9-267.6,0-496,213.32-496.66,495.76-.68,278,221.11,496.85,496.4,498.07C1096.89,1334,1320.3,1110.13,1320.56,835.8Z"/></svg>